<?xml version="1.0" encoding="UTF-8" standalone="no"?><svg xmlns="http://www.w3.org/2000/svg" xmlns:xlink="http://www.w3.org/1999/xlink" contentStyleType="text/css" height="1232.2917px" preserveAspectRatio="none" style="width:1172px;height:1232px;" version="1.1" viewBox="0 0 1172 1232" width="1172.9167px" zoomAndPan="magnify"><defs><linearGradient id="g25q4sqgjw2f60" x1="50%" x2="50%" y1="0%" y2="100%"><stop offset="0%" stop-color="#FFFFFF"/><stop offset="100%" stop-color="#CCCCCC"/></linearGradient><linearGradient id="g25q4sqgjw2f61" x1="50%" x2="50%" y1="0%" y2="100%"><stop offset="0%" stop-color="#F08E41"/><stop offset="100%" stop-color="#EC7211"/></linearGradient></defs><g><rect fill="url(#g25q4sqgjw2f60)" height="45.0846" id="_title" rx="4.1667" ry="4.1667" style="stroke:#FFFFFF;stroke-width:1.0416666666666667;" width="289.5833" x="434.8026" y="5.2083"/><text fill="#4E5D6C" font-family="&quot;Verdana&quot;" font-size="20.8333" font-weight="bold" lengthAdjust="spacing" textLength="268.75" x="445.2193" y="34.963">KeyleSSH Architecture</text><!--MD5=[c018863fe2304e0ca952616611326b6e]
cluster Host--><g id="cluster_Host"><polygon fill="#FFFFFF" points="16.6667,428.1471,27.0833,417.7305,230.2083,417.7305,230.2083,827.1055,219.7917,837.5221,16.6667,837.5221,16.6667,428.1471" style="stroke:#4E5D6C;stroke-width:1.0416666666666667;"/><line style="stroke:#4E5D6C;stroke-width:1.0416666666666667;" x1="219.7917" x2="230.2083" y1="428.1471" y2="417.7305"/><line style="stroke:#4E5D6C;stroke-width:1.0416666666666667;" x1="16.6667" x2="219.7917" y1="428.1471" y2="428.1471"/><line style="stroke:#4E5D6C;stroke-width:1.0416666666666667;" x1="219.7917" x2="219.7917" y1="428.1471" y2="837.5221"/><text fill="#ABB6C2" font-family="&quot;Verdana&quot;" font-size="12.5" font-weight="bold" lengthAdjust="spacing" textLength="34.375" x="102.0833" y="448.0833">Host</text></g><!--MD5=[1da3f15a6c55a172e77f9f97c8321ea7]
cluster authorized_keys--><g id="cluster_authorized_keys"><path d="M45.8333,695.8555 L176.0417,695.8555 A6.25,6.25 0 0 1 180.2083,700.0221 L187.5,727.0729 L187.5,727.0729 A4.1667,4.1667 0 0 1 191.6667,731.2396 L191.6667,808.3555 A4.1667,4.1667 0 0 1 187.5,812.5221 L45.8333,812.5221 A4.1667,4.1667 0 0 1 41.6667,808.3555 L41.6667,700.0221 A4.1667,4.1667 0 0 1 45.8333,695.8555 " fill="#808080" style="stroke:#EC7211;stroke-width:2.0833333333333335;"/><line style="stroke:#EC7211;stroke-width:2.0833333333333335;" x1="41.6667" x2="187.5" y1="727.0729" y2="727.0729"/><text fill="#EC7211" font-family="&quot;Verdana&quot;" font-size="12.5" font-weight="bold" lengthAdjust="spacing" textLength="121.875" x="51.0417" y="714.7499">authorized_keys</text></g><!--MD5=[c029c475a76b5c07dab1932cfede9797]
cluster SSH Proxy--><g id="cluster_SSH Proxy"><polygon fill="#FFFFFF" points="130.2083,117.7305,140.625,107.3138,726.0417,107.3138,726.0417,295.8555,715.625,306.2721,130.2083,306.2721,130.2083,117.7305" style="stroke:#4E5D6C;stroke-width:1.0416666666666667;"/><line style="stroke:#4E5D6C;stroke-width:1.0416666666666667;" x1="715.625" x2="726.0417" y1="117.7305" y2="107.3138"/><line style="stroke:#4E5D6C;stroke-width:1.0416666666666667;" x1="130.2083" x2="715.625" y1="117.7305" y2="117.7305"/><line style="stroke:#4E5D6C;stroke-width:1.0416666666666667;" x1="715.625" x2="715.625" y1="117.7305" y2="306.2721"/><text fill="#ABB6C2" font-family="&quot;Verdana&quot;" font-size="12.5" font-weight="bold" lengthAdjust="spacing" textLength="73.9583" x="386.9792" y="137.6666">SSH Proxy</text></g><!--MD5=[c7a30d43103b3452cf0668fb83d02415]
cluster config.json--><g id="cluster_config.json"><path d="M573.9583,164.6055 L663.5417,164.6055 A6.25,6.25 0 0 1 667.7083,168.7721 L675,195.8229 L696.875,195.8229 A4.1667,4.1667 0 0 1 701.0417,199.9896 L701.0417,277.1055 A4.1667,4.1667 0 0 1 696.875,281.2721 L573.9583,281.2721 A4.1667,4.1667 0 0 1 569.7917,277.1055 L569.7917,168.7721 A4.1667,4.1667 0 0 1 573.9583,164.6055 " fill="#808080" style="stroke:#EC7211;stroke-width:2.0833333333333335;"/><line style="stroke:#EC7211;stroke-width:2.0833333333333335;" x1="569.7917" x2="675" y1="195.8229" y2="195.8229"/><text fill="#EC7211" font-family="&quot;Verdana&quot;" font-size="12.5" font-weight="bold" lengthAdjust="spacing" textLength="81.25" x="579.1667" y="183.4999">config.json</text></g><!--MD5=[2de28e47f9582cb6df153deeec479525]
cluster browser--><g id="cluster_browser"><rect fill="#FFFFFF" height="198.9583" rx="4.1667" ry="4.1667" style="stroke:#0073BB;stroke-width:2.0833333333333335;" width="468.75" x="335.4167" y="365.6471"/><path d="M455.2083,365.6471 L455.2083,383.3229 L444.7917,393.7396 L335.4167,393.7396 " fill="none" style="stroke:#0073BB;stroke-width:2.0833333333333335;"/><text fill="#0073BB" font-family="&quot;Verdana&quot;" font-size="12.5" font-weight="bold" lengthAdjust="spacing" textLength="98.9583" x="343.75" y="383.4999">Web browser</text></g><!--MD5=[492b10dc70086493f7c7984987389bf1]
cluster webclient--><g id="cluster_webclient"><polygon fill="#FFFFFF" points="360.4167,428.1471,370.8333,417.7305,779.1667,417.7305,779.1667,529.1888,768.75,539.6055,360.4167,539.6055,360.4167,428.1471" style="stroke:#4E5D6C;stroke-width:1.0416666666666667;"/><line style="stroke:#4E5D6C;stroke-width:1.0416666666666667;" x1="768.75" x2="779.1667" y1="428.1471" y2="417.7305"/><line style="stroke:#4E5D6C;stroke-width:1.0416666666666667;" x1="360.4167" x2="768.75" y1="428.1471" y2="428.1471"/><line style="stroke:#4E5D6C;stroke-width:1.0416666666666667;" x1="768.75" x2="768.75" y1="428.1471" y2="539.6055"/><text fill="#ABB6C2" font-family="&quot;Verdana&quot;" font-size="12.5" font-weight="bold" lengthAdjust="spacing" textLength="78.125" x="526.5625" y="448.0833">Web client</text></g><!--MD5=[3f0967606a85fc43974c121023f510a0]
cluster Tide Network--><g id="cluster_Tide Network"><path d="M426.9568,648.7902 C439.0894,627.5844 460.8392,628.4725 474.2139,647.3248 C489.9456,626.3238 514.7088,624.8122 526.6296,651.5125 C539.1196,624.6124 557.8989,628.6018 573.9062,647.9142 C586.9062,619.1501 609.8147,619.8794 626.6552,644.0902 C641.6141,625.8902 656.5899,626.8006 669.6698,646.2376 C685.0873,616.1017 708.0543,614.6301 727.1289,642.6226 C744.0846,620.6362 760.17,619.7134 773.5127,646.0879 C784.5991,625.0613 808.0696,622.4837 821.2579,643.713 C833.6123,617.5292 858.485,617.2186 871.3744,643.1991 C890.8437,617.33 909.0613,621.4759 924.2249,647.5778 C942.4491,622.1181 957.8007,629.0865 973.5783,650.1719 C987.19,626.7323 1005.0014,623.6136 1021.7115,646.986 C1042.1084,625.3707 1063.1907,622.3069 1077.7911,653.1791 C1093.7738,632.4382 1111.9797,632.0115 1127.0833,654.1888 C1131.4715,650.7195 1134.0137,652.7982 1135.3098,657.3572 C1157.6583,673.8154 1159.5601,694.2917 1131.2997,706.6312 C1155.0439,718.467 1160.7093,740.2768 1135.0912,755.9105 C1165.5771,773.296 1162.872,794.6502 1134.6707,811.5925 C1156.4765,822.2248 1163.0972,834.7591 1143.5097,854.0158 C1166.4803,869.2429 1165.3678,897.2808 1141.6786,911.0087 C1160.9348,925.3714 1159.1487,945.6682 1136.6641,955.3058 C1162.7657,968.6254 1159.5052,991.4652 1136.9524,1005.0667 C1157.0569,1028.7634 1151.1935,1052.7047 1119.7917,1060.4388 C1123.8319,1058.0663 1126.3588,1059.9944 1126.8603,1064.2263 C1107.3741,1093.1311 1091.0771,1086.7483 1073.2097,1062.5896 C1060.7205,1087.5365 1036.6522,1093.9997 1019.7147,1067.1871 C1003.6722,1088.2042 988.6566,1086.5872 976.1507,1063.6795 C967.4701,1087.5427 943.4505,1091.9375 927.8724,1071.1349 C910.7248,1097.7074 890.3846,1095.758 872.4873,1071.9592 C856.8708,1093.2664 834.1794,1099.268 819.6607,1070.7943 C805.6815,1088.1569 789.9267,1090.5994 776.9796,1069.6448 C761.1614,1090.6047 744.4635,1089.3805 728.3324,1070.0224 C712.896,1091.997 695.1453,1098.9871 676.7885,1073.1723 C658.7192,1100.9611 634.5998,1097.4816 619.6544,1069.9462 C603.6644,1093.0209 587.0062,1091.168 575.3894,1065.9387 C560.265,1088.8811 539.6539,1088.527 523.2575,1067.445 C507.8367,1089.4129 485.7604,1090.3278 469.2978,1068.7356 C444.8271,1087.7012 423.0501,1081.9677 411.4583,1053.1471 C415.0078,1051.0488 417.1088,1053.0354 417.5421,1056.5342 C389.7023,1044.9298 392.2733,1030.1417 409.3401,1010.5308 C383.5372,993.752 390.5884,972.4032 413.752,959.8904 C391.856,946.5613 388.0454,926.3181 410.2558,909.9041 C385.9736,894.0054 380.1725,874.5713 405.992,854.7961 C386.5672,841.6193 384.2375,821.1298 407.3147,809.1856 C385.028,790.1061 384.8801,773.8921 410.7138,758.0087 C384.7573,744.9111 388.134,724.8358 409.8936,710.9073 C378.7009,684.7848 381.5473,663.5566 418.75,646.8971 C421.8849,644.1089 425.4043,644.7186 426.9568,648.7902 " fill="#FFA500" style="stroke:#4E5D6C;stroke-width:1.0416666666666667;"/><text fill="#ABB6C2" font-family="&quot;Verdana&quot;" font-size="12.5" font-weight="bold" lengthAdjust="spacing" textLength="97.9167" x="720.3125" y="668.9166">Tide Network</text></g><!--MD5=[1d2ab9099354f11544bad941f3467535]
cluster ORK node--><g id="cluster_ORK node"><polygon fill="#FFFFFF" points="428.125,701.0638,438.5417,690.6471,1110.4167,690.6471,1110.4167,1033.3555,1100,1043.7721,428.125,1043.7721,428.125,701.0638" style="stroke:#4E5D6C;stroke-width:1.0416666666666667;"/><line style="stroke:#4E5D6C;stroke-width:1.0416666666666667;" x1="1100" x2="1110.4167" y1="701.0638" y2="690.6471"/><line style="stroke:#4E5D6C;stroke-width:1.0416666666666667;" x1="428.125" x2="1100" y1="701.0638" y2="701.0638"/><line style="stroke:#4E5D6C;stroke-width:1.0416666666666667;" x1="1100" x2="1100" y1="701.0638" y2="1043.7721"/><text fill="#ABB6C2" font-family="&quot;Verdana&quot;" font-size="12.5" font-weight="bold" lengthAdjust="spacing" textLength="71.875" x="729.1667" y="720.9999">ORK node</text></g><!--MD5=[a273e68bc98334f75da4f1250f3fd049]
cluster key store--><g id="cluster_key store"><path d="M550,882.3138 C550,871.8971 692.1875,871.8971 692.1875,871.8971 C692.1875,871.8971 834.375,871.8971 834.375,882.3138 L834.375,1008.3555 C834.375,1018.7721 692.1875,1018.7721 692.1875,1018.7721 C692.1875,1018.7721 550,1018.7721 550,1008.3555 L550,882.3138 " fill="#FFFFFF" style="stroke:#4E5D6C;stroke-width:1.0416666666666667;"/><path d="M550,882.3138 C550,892.7305 692.1875,892.7305 692.1875,892.7305 C692.1875,892.7305 834.375,892.7305 834.375,882.3138 " fill="none" style="stroke:#4E5D6C;stroke-width:1.0416666666666667;"/><text fill="#4E5D6C" font-family="&quot;Verdana&quot;" font-size="12.5" font-weight="bold" lengthAdjust="spacing" textLength="69.7917" x="657.2917" y="911.6249">key store</text></g><!--MD5=[d49a6ffc90cc181bcf2dc517b98ee2de]
entity SSH2--><g id="elem_SSH2"><ellipse cx="204.1667" cy="494.8138" fill="#808080" rx="8.3333" ry="8.3333" style="stroke:#D13212;stroke-width:1.0416666666666667;"/><text fill="#4E5D6C" font-family="&quot;Verdana&quot;" font-size="12.5" lengthAdjust="spacing" textLength="34.375" x="186.9792" y="529.3333">SSH2</text></g><!--MD5=[f3e45af04af82bc01a18143ea0004290]
entity SSH Server--><g id="elem_SSH Server"><rect fill="#808080" height="56.2174" rx="4.1667" ry="4.1667" style="stroke:#EC7211;stroke-width:1.0416666666666667;" width="123.9583" x="33.8542" y="466.6888"/><rect fill="#808080" height="10.4167" style="stroke:#EC7211;stroke-width:1.0416666666666667;" width="15.625" x="136.9792" y="471.8971"/><rect fill="#808080" height="2.0833" style="stroke:#EC7211;stroke-width:1.0416666666666667;" width="4.1667" x="134.8958" y="473.9805"/><rect fill="#808080" height="2.0833" style="stroke:#EC7211;stroke-width:1.0416666666666667;" width="4.1667" x="134.8958" y="478.1471"/><text fill="#FFFFFF" font-family="&quot;Verdana&quot;" font-size="12.5" lengthAdjust="spacing" textLength="71.875" x="54.6875" y="504.3333">SSH Server</text></g><!--MD5=[c5c33892bce9263157e580e9d476a61d]
entity cvkpub--><g id="elem_cvkpub"><rect fill="#808080" height="56.2174" rx="4.1667" ry="4.1667" style="stroke:#EC7211;stroke-width:1.0416666666666667;" width="116.6667" x="58.3333" y="739.6055"/><rect fill="#808080" height="10.4167" style="stroke:#EC7211;stroke-width:1.0416666666666667;" width="15.625" x="154.1667" y="744.8138"/><rect fill="#808080" height="2.0833" style="stroke:#EC7211;stroke-width:1.0416666666666667;" width="4.1667" x="152.0833" y="746.8971"/><rect fill="#808080" height="2.0833" style="stroke:#EC7211;stroke-width:1.0416666666666667;" width="4.1667" x="152.0833" y="751.0638"/><text fill="#FFFFFF" font-family="&quot;Verdana&quot;" font-size="12.5" lengthAdjust="spacing" textLength="64.5833" x="79.1667" y="777.2499">public key</text></g><!--MD5=[a557437c1e1cd5068c5decf476ad89c1]
entity Websocket--><g id="elem_Websocket"><ellipse cx="307.2917" cy="236.4805" fill="#0000FF" rx="8.3333" ry="8.3333" style="stroke:#D13212;stroke-width:1.0416666666666667;"/><text fill="#4E5D6C" font-family="&quot;Verdana&quot;" font-size="12.5" lengthAdjust="spacing" textLength="71.875" x="271.3542" y="270.9999">Websocket</text></g><!--MD5=[3d0aa6425748b5166ad63f061495f8e8]
entity WebSSH2--><g id="elem_WebSSH2"><rect fill="#0000FF" height="56.2174" rx="4.1667" ry="4.1667" style="stroke:#EC7211;stroke-width:1.0416666666666667;" width="114.5833" x="146.875" y="208.3555"/><rect fill="#0000FF" height="10.4167" style="stroke:#EC7211;stroke-width:1.0416666666666667;" width="15.625" x="240.625" y="213.5638"/><rect fill="#0000FF" height="2.0833" style="stroke:#EC7211;stroke-width:1.0416666666666667;" width="4.1667" x="238.5417" y="215.6471"/><rect fill="#0000FF" height="2.0833" style="stroke:#EC7211;stroke-width:1.0416666666666667;" width="4.1667" x="238.5417" y="219.8138"/><text fill="#FFFFFF" font-family="&quot;Verdana&quot;" font-size="12.5" lengthAdjust="spacing" textLength="62.5" x="167.7083" y="245.9999">WebSSH2</text></g><!--MD5=[9f65eaf450943a4c14297c25da91a260]
entity http1--><g id="elem_http1"><ellipse cx="540.625" cy="236.4805" fill="#0000FF" rx="8.3333" ry="8.3333" style="stroke:#D13212;stroke-width:1.0416666666666667;"/><text fill="#4E5D6C" font-family="&quot;Verdana&quot;" font-size="12.5" lengthAdjust="spacing" textLength="33.3333" x="523.9583" y="270.9999">HTML</text></g><!--MD5=[b2ae5b9214bc8a56cc3dbb49819eb234]
entity Landing page--><g id="elem_Landing page"><rect fill="#0000FF" height="56.2174" rx="4.1667" ry="4.1667" style="stroke:#EC7211;stroke-width:1.0416666666666667;" width="140.625" x="353.6458" y="208.3555"/><rect fill="#0000FF" height="10.4167" style="stroke:#EC7211;stroke-width:1.0416666666666667;" width="15.625" x="473.4375" y="213.5638"/><rect fill="#0000FF" height="2.0833" style="stroke:#EC7211;stroke-width:1.0416666666666667;" width="4.1667" x="471.3542" y="215.6471"/><rect fill="#0000FF" height="2.0833" style="stroke:#EC7211;stroke-width:1.0416666666666667;" width="4.1667" x="471.3542" y="219.8138"/><text fill="#FFFFFF" font-family="&quot;Verdana&quot;" font-size="12.5" lengthAdjust="spacing" textLength="88.5417" x="374.4792" y="245.9999">Landing page</text></g><!--MD5=[caf660ac2a54b55a5c31b5515889e628]
entity config--><g id="elem_config"><rect fill="#808080" height="56.2174" rx="4.1667" ry="4.1667" style="stroke:#EC7211;stroke-width:1.0416666666666667;" width="97.9167" x="586.4583" y="208.3555"/><rect fill="#808080" height="10.4167" style="stroke:#EC7211;stroke-width:1.0416666666666667;" width="15.625" x="663.5417" y="213.5638"/><rect fill="#808080" height="2.0833" style="stroke:#EC7211;stroke-width:1.0416666666666667;" width="4.1667" x="661.4583" y="215.6471"/><rect fill="#808080" height="2.0833" style="stroke:#EC7211;stroke-width:1.0416666666666667;" width="4.1667" x="661.4583" y="219.8138"/><text fill="#FFFFFF" font-family="&quot;Verdana&quot;" font-size="12.5" lengthAdjust="spacing" textLength="45.8333" x="607.2917" y="245.9999">Host IP</text></g><!--MD5=[a20af944864ab8011ad321fa6cf5eda6]
entity SSH Client--><g id="elem_SSH Client"><rect fill="#0000FF" height="56.2174" rx="4.1667" ry="4.1667" style="stroke:#EC7211;stroke-width:1.0416666666666667;" width="118.75" x="377.0833" y="466.6888"/><rect fill="#0000FF" height="10.4167" style="stroke:#EC7211;stroke-width:1.0416666666666667;" width="15.625" x="475" y="471.8971"/><rect fill="#0000FF" height="2.0833" style="stroke:#EC7211;stroke-width:1.0416666666666667;" width="4.1667" x="472.9167" y="473.9805"/><rect fill="#0000FF" height="2.0833" style="stroke:#EC7211;stroke-width:1.0416666666666667;" width="4.1667" x="472.9167" y="478.1471"/><text fill="#FFFFFF" font-family="&quot;Verdana&quot;" font-size="12.5" lengthAdjust="spacing" textLength="66.6667" x="397.9167" y="504.3333">SSH Client</text></g><!--MD5=[281f746dcbfdd5f6b1a18d5ab65bb3b4]
entity Tide Enclave--><g id="elem_Tide Enclave"><rect fill="url(#g25q4sqgjw2f61)" height="56.2174" rx="4.1667" ry="4.1667" style="stroke:#EC7211;stroke-width:1.0416666666666667;" width="133.3333" x="629.1667" y="466.6888"/><rect fill="url(#g25q4sqgjw2f61)" height="10.4167" style="stroke:#EC7211;stroke-width:1.0416666666666667;" width="15.625" x="741.6667" y="471.8971"/><rect fill="url(#g25q4sqgjw2f61)" height="2.0833" style="stroke:#EC7211;stroke-width:1.0416666666666667;" width="4.1667" x="739.5833" y="473.9805"/><rect fill="url(#g25q4sqgjw2f61)" height="2.0833" style="stroke:#EC7211;stroke-width:1.0416666666666667;" width="4.1667" x="739.5833" y="478.1471"/><text fill="#FFFFFF" font-family="&quot;Verdana&quot;" font-size="12.5" lengthAdjust="spacing" textLength="81.25" x="650" y="504.3333">Tide Enclave</text></g><!--MD5=[21e97b73a141fb924fc1ccac418b209c]
entity http2--><g id="elem_http2"><ellipse cx="912.5" cy="767.7305" fill="#A7280E" rx="8.3333" ry="8.3333" style="stroke:#D13212;stroke-width:1.0416666666666667;"/><text fill="#4E5D6C" font-family="&quot;Verdana&quot;" font-size="12.5" lengthAdjust="spacing" textLength="33.3333" x="895.8333" y="802.2499">HTML</text></g><!--MD5=[c06a3d9730123df9b4c0c7fe1eeba475]
entity 0--><g id="elem_0"><ellipse cx="695.8333" cy="767.7305" fill="#A7280E" rx="8.3333" ry="8.3333" style="stroke:#D13212;stroke-width:1.0416666666666667;"/><text fill="#4E5D6C" font-family="&quot;Verdana&quot;" font-size="12.5" lengthAdjust="spacing" textLength="56.25" x="667.7083" y="802.2499">HTTP API</text></g><!--MD5=[13c7745981a6abb6004f7738a8ca5078]
entity 1--><g id="elem_1"><ellipse cx="454.1667" cy="767.7305" fill="#A7280E" rx="8.3333" ry="8.3333" style="stroke:#D13212;stroke-width:1.0416666666666667;"/><text fill="#4E5D6C" font-family="&quot;Verdana&quot;" font-size="12.5" lengthAdjust="spacing" textLength="56.25" x="426.0417" y="802.2499">HTTP API</text></g><!--MD5=[02047a368f92babcb378e2dcfeb05feb]
entity Enclave host--><g id="elem_Enclave host"><rect fill="url(#g25q4sqgjw2f61)" height="56.2174" rx="4.1667" ry="4.1667" style="stroke:#EC7211;stroke-width:1.0416666666666667;" width="135.4167" x="958.3333" y="739.6055"/><rect fill="url(#g25q4sqgjw2f61)" height="10.4167" style="stroke:#EC7211;stroke-width:1.0416666666666667;" width="15.625" x="1072.9167" y="744.8138"/><rect fill="url(#g25q4sqgjw2f61)" height="2.0833" style="stroke:#EC7211;stroke-width:1.0416666666666667;" width="4.1667" x="1070.8333" y="746.8971"/><rect fill="url(#g25q4sqgjw2f61)" height="2.0833" style="stroke:#EC7211;stroke-width:1.0416666666666667;" width="4.1667" x="1070.8333" y="751.0638"/><text fill="#FFFFFF" font-family="&quot;Verdana&quot;" font-size="12.5" lengthAdjust="spacing" textLength="83.3333" x="979.1667" y="777.2499">Enclave host</text></g><!--MD5=[fa0e930bc18484641cf6c0e174491f98]
entity PRISM auth--><g id="elem_PRISM auth"><rect fill="url(#g25q4sqgjw2f61)" height="56.2174" rx="4.1667" ry="4.1667" style="stroke:#EC7211;stroke-width:1.0416666666666667;" width="125" x="741.6667" y="739.6055"/><rect fill="url(#g25q4sqgjw2f61)" height="10.4167" style="stroke:#EC7211;stroke-width:1.0416666666666667;" width="15.625" x="845.8333" y="744.8138"/><rect fill="url(#g25q4sqgjw2f61)" height="2.0833" style="stroke:#EC7211;stroke-width:1.0416666666666667;" width="4.1667" x="843.75" y="746.8971"/><rect fill="url(#g25q4sqgjw2f61)" height="2.0833" style="stroke:#EC7211;stroke-width:1.0416666666666667;" width="4.1667" x="843.75" y="751.0638"/><text fill="#FFFFFF" font-family="&quot;Verdana&quot;" font-size="12.5" lengthAdjust="spacing" textLength="72.9167" x="762.5" y="777.2499">PRISM auth</text></g><!--MD5=[8dbfbae0971825e745ddf2e149d4dfaf]
entity Verify and Sign--><g id="elem_Verify and Sign"><rect fill="url(#g25q4sqgjw2f61)" height="56.2174" rx="4.1667" ry="4.1667" style="stroke:#EC7211;stroke-width:1.0416666666666667;" width="148.9583" x="500.5208" y="739.6055"/><rect fill="url(#g25q4sqgjw2f61)" height="10.4167" style="stroke:#EC7211;stroke-width:1.0416666666666667;" width="15.625" x="628.6458" y="744.8138"/><rect fill="url(#g25q4sqgjw2f61)" height="2.0833" style="stroke:#EC7211;stroke-width:1.0416666666666667;" width="4.1667" x="626.5625" y="746.8971"/><rect fill="url(#g25q4sqgjw2f61)" height="2.0833" style="stroke:#EC7211;stroke-width:1.0416666666666667;" width="4.1667" x="626.5625" y="751.0638"/><text fill="#FFFFFF" font-family="&quot;Verdana&quot;" font-size="12.5" lengthAdjust="spacing" textLength="96.875" x="521.3542" y="777.2499">Verify and Sign</text></g><!--MD5=[07b176344b205c2789515a34acbb9cb0]
entity cvk--><g id="elem_cvk"><rect fill="url(#g25q4sqgjw2f61)" height="70.7682" rx="4.1667" ry="4.1667" style="stroke:#EC7211;stroke-width:1.0416666666666667;" width="122.9167" x="566.6667" y="931.2721"/><rect fill="url(#g25q4sqgjw2f61)" height="10.4167" style="stroke:#EC7211;stroke-width:1.0416666666666667;" width="15.625" x="668.75" y="936.4805"/><rect fill="url(#g25q4sqgjw2f61)" height="2.0833" style="stroke:#EC7211;stroke-width:1.0416666666666667;" width="4.1667" x="666.6667" y="938.5638"/><rect fill="url(#g25q4sqgjw2f61)" height="2.0833" style="stroke:#EC7211;stroke-width:1.0416666666666667;" width="4.1667" x="666.6667" y="942.7305"/><text fill="#FFFFFF" font-family="&quot;Verdana&quot;" font-size="12.5" lengthAdjust="spacing" textLength="70.8333" x="587.5" y="968.9166">Private key</text><text fill="#FFFFFF" font-family="&quot;Verdana&quot;" font-size="12.5" lengthAdjust="spacing" textLength="37.5" x="587.5" y="983.4674">shard</text></g><!--MD5=[ea3f5907e14b26d2690382287fd887d6]
entity pss--><g id="elem_pss"><rect fill="url(#g25q4sqgjw2f61)" height="70.7682" rx="4.1667" ry="4.1667" style="stroke:#EC7211;stroke-width:1.0416666666666667;" width="90.625" x="726.5625" y="931.2721"/><rect fill="url(#g25q4sqgjw2f61)" height="10.4167" style="stroke:#EC7211;stroke-width:1.0416666666666667;" width="15.625" x="796.3542" y="936.4805"/><rect fill="url(#g25q4sqgjw2f61)" height="2.0833" style="stroke:#EC7211;stroke-width:1.0416666666666667;" width="4.1667" x="794.2708" y="938.5638"/><rect fill="url(#g25q4sqgjw2f61)" height="2.0833" style="stroke:#EC7211;stroke-width:1.0416666666666667;" width="4.1667" x="794.2708" y="942.7305"/><text fill="#FFFFFF" font-family="&quot;Verdana&quot;" font-size="12.5" lengthAdjust="spacing" textLength="38.5417" x="747.3958" y="968.9166">PRISM</text><text fill="#FFFFFF" font-family="&quot;Verdana&quot;" font-size="12.5" lengthAdjust="spacing" textLength="37.5" x="747.3958" y="983.4674">shard</text></g><!--MD5=[8fc3522a43f8c7199df5e09e5bb0188e]
entity user--><g id="elem_user"><ellipse cx="915.625" cy="459.918" fill="#808080" rx="8.3333" ry="8.3333" style="stroke:#EC7211;stroke-width:1.0416666666666667;"/><path d="M915.625,468.2513 L915.625,496.3763 M902.0833,476.5846 L929.1667,476.5846 M915.625,496.3763 L902.0833,512.0013 M915.625,496.3763 L929.1667,512.0013 " fill="none" style="stroke:#EC7211;stroke-width:1.0416666666666667;"/><text fill="#4E5D6C" font-family="&quot;Verdana&quot;" font-size="12.5" lengthAdjust="spacing" textLength="30.2083" x="900.5208" y="530.8958">User</text></g><!--MD5=[177083ca7625ce3bc2f7f4aca3b44f24]
link SSH Server to SSH2--><g id="link_SSH Server_SSH2"><path d="M158.0417,494.8138 C170.1771,494.8138 182.3021,494.8138 194.4375,494.8138 " fill="none" id="SSH Server-SSH2" style="stroke:#808080;stroke-width:3.125;"/></g><!--MD5=[0ceaac2743612477a60cb878417aac7a]
link SSH Server to cvkpub--><g id="link_SSH Server_cvkpub"><path d="M97.9479,523.3138 C101.8125,573.6263 110.0313,680.3763 114.1667,734.2096 " fill="none" id="SSH Server-to-cvkpub" style="stroke:#000000;stroke-width:3.125;"/><polygon fill="#000000" points="114.5833,739.5638,118.042,729.9052,114.1964,734.3699,109.7317,730.5243,114.5833,739.5638" style="stroke:#000000;stroke-width:3.125;"/></g><!--MD5=[298504b0d48ed5a66a388d26936c4816]
link Websocket to WebSSH2--><g id="link_Websocket_WebSSH2"><path d="M297.6875,236.4805 C285.7188,236.4805 273.7396,236.4805 261.7708,236.4805 " fill="none" id="Websocket-WebSSH2" style="stroke:#0000FF;stroke-width:3.125;"/></g><!--MD5=[69bb8913481c5e5c6a6897e074723e1a]
reverse link config to WebSSH2--><g id="link_config_WebSSH2"><path d="M632.625,203.0117 C627.1979,163.4596 611.1875,100.7826 564.0625,83.3555 C508.4792,62.793 352.9792,62.793 297.3958,83.3555 C245.2917,102.6263 220.5208,169.4701 210.3021,208.1784 " fill="none" id="config-backto-WebSSH2" style="stroke:#000000;stroke-width:3.125;"/><polygon fill="#000000" points="633.3021,208.1992,636.2563,198.3745,632.6469,203.0323,627.9892,199.4228,633.3021,208.1992" style="stroke:#000000;stroke-width:3.125;"/></g><!--MD5=[3289d4923d63544a8b7b9be05159fad2]
link Landing page to http1--><g id="link_Landing page_http1"><path d="M494.5938,236.4805 C506.6979,236.4805 518.8125,236.4805 530.9167,236.4805 " fill="none" id="Landing page-http1" style="stroke:#0000FF;stroke-width:3.125;"/></g><!--MD5=[303bba857e46cc54639241fffef1e9a4]
link WebSSH2 to SSH2--><g id="link_WebSSH2_SSH2"><path d="M204.1667,264.9492 C204.1667,319.3346 204.1667,439.1367 204.1667,479.8867 " fill="none" id="WebSSH2-to-SSH2" style="stroke:#808080;stroke-width:3.125;"/><polygon fill="#808080" points="204.1667,485.3138,208.3333,475.9388,204.1667,480.1055,200,475.9388,204.1667,485.3138" style="stroke:#808080;stroke-width:3.125;"/><text fill="#4E5D6C" font-family="&quot;Verdana&quot;" font-size="12.5" lengthAdjust="spacing" textLength="22.9167" x="210.4167" y="340.7916">ssh</text></g><!--MD5=[91f15a169ca6d3bbec4aaae09fd97850]
reverse link http1 to SSH Client--><g id="link_http1_SSH Client"><path d="M535.8229,251.3451 C530.3854,266.8346 521.1563,292.6471 512.5,314.6055 C491.0521,368.9909 463.8646,431.6888 448.4896,466.6367 " fill="none" id="http1-backto-SSH Client" style="stroke:#808080;stroke-width:3.125;"/><polygon fill="#808080" points="537.6458,246.1263,530.6262,253.608,535.9319,251.0446,538.4953,256.3503,537.6458,246.1263" style="stroke:#808080;stroke-width:3.125;"/><text fill="#4E5D6C" font-family="&quot;Verdana&quot;" font-size="12.5" lengthAdjust="spacing" textLength="103.125" x="514.5833" y="340.7916">Download client</text></g><!--MD5=[39812a450e8c867f955055890e6c7ac5]
link SSH Client to Websocket--><g id="link_SSH Client_Websocket"><path d="M419.2604,466.5846 C397.8958,432.0951 361.1146,370.3971 335.4167,314.6055 C325.5417,293.168 316.6667,267.1992 311.6354,251.543 " fill="none" id="SSH Client-to-Websocket" style="stroke:#0000FF;stroke-width:3.125;"/><polygon fill="#0000FF" points="309.9688,246.2617,308.8332,256.4579,311.5443,251.226,316.7761,253.9371,309.9688,246.2617" style="stroke:#0000FF;stroke-width:3.125;"/><text fill="#4E5D6C" font-family="&quot;Verdana&quot;" font-size="12.5" lengthAdjust="spacing" textLength="80.2083" x="356.25" y="340.7916">SSH session</text></g><!--MD5=[2e919d82029877e58fc15e746c7757cb]
link SSH Client to Tide Enclave--><g id="link_SSH Client_Tide Enclave"><path d="M501.6146,494.8138 C538.6458,494.8138 585.0833,494.8138 623.2708,494.8138 " fill="none" id="SSH Client-Tide Enclave" style="stroke:#EC7211;stroke-width:3.125;"/><polygon fill="#EC7211" points="495.9688,494.8138,505.3438,498.9805,501.1771,494.8138,505.3438,490.6471,495.9688,494.8138" style="stroke:#EC7211;stroke-width:3.125;"/><polygon fill="#EC7211" points="628.8438,494.8138,619.4688,490.6471,623.6354,494.8138,619.4688,498.9805,628.8438,494.8138" style="stroke:#EC7211;stroke-width:3.125;"/><text fill="#4E5D6C" font-family="&quot;Verdana&quot;" font-size="12.5" lengthAdjust="spacing" textLength="27.0833" x="548.9583" y="468.9166">Tide</text><text fill="#4E5D6C" font-family="&quot;Verdana&quot;" font-size="12.5" lengthAdjust="spacing" textLength="84.375" x="520.3125" y="483.4674">Heimdall SDK</text></g><!--MD5=[2a0ac04cb6b3b67e9452c7650b8b23f3]
link Tide Enclave to user--><g id="link_Tide Enclave_user"><path d="M768.0521,494.8138 C809.9583,494.8138 860.1667,494.8138 889.9063,494.8138 " fill="none" id="Tide Enclave-user" style="stroke:#808080;stroke-width:3.125;"/><polygon fill="#808080" points="762.6771,494.8138,772.0521,498.9805,767.8854,494.8138,772.0521,490.6471,762.6771,494.8138" style="stroke:#808080;stroke-width:3.125;"/><polygon fill="#808080" points="895.2083,494.8138,885.8333,490.6471,890,494.8138,885.8333,498.9805,895.2083,494.8138" style="stroke:#808080;stroke-width:3.125;"/><text fill="#4E5D6C" font-family="&quot;Verdana&quot;" font-size="12.5" lengthAdjust="spacing" textLength="84.375" x="786.7188" y="454.3333">Press button</text><text fill="#4E5D6C" font-family="&quot;Verdana&quot;" font-size="12.5" lengthAdjust="spacing" textLength="38.5417" x="809.6354" y="468.884">Log in</text><text fill="#4E5D6C" font-family="&quot;Verdana&quot;" font-size="12.5" lengthAdjust="spacing" textLength="80.2083" x="788.8021" y="483.4348">SSH session</text></g><!--MD5=[0c3c1e0252c3aaae167646de4d0bb413]
link http2 to Enclave host--><g id="link_http2_Enclave host"><path d="M922.2604,767.7305 C934.1458,767.7305 946.0417,767.7305 957.9375,767.7305 " fill="none" id="http2-Enclave host" style="stroke:#EC7211;stroke-width:3.125;"/></g><!--MD5=[c68b7806dfda6028f1b2ab9ec620ad1f]
link 0 to PRISM auth--><g id="link_0_PRISM auth"><path d="M705.5625,767.7305 C717.5104,767.7305 729.4479,767.7305 741.3854,767.7305 " fill="none" id="0-PRISM auth" style="stroke:#EC7211;stroke-width:3.125;"/></g><!--MD5=[d70689639d423928459ab386868250ee]
link 1 to Verify and Sign--><g id="link_1_Verify and Sign"><path d="M463.6042,767.7305 C475.7917,767.7305 487.9792,767.7305 500.1563,767.7305 " fill="none" id="1-Verify and Sign" style="stroke:#EC7211;stroke-width:3.125;"/></g><!--MD5=[57085691fd5070ee3f71c3340ba385f4]
link Verify and Sign to cvk--><g id="link_Verify and Sign_cvk"><path d="M582.3854,796.1471 C591.5,829.918 607.0625,887.5846 617.4688,926.1576 " fill="none" id="Verify and Sign-to-cvk" style="stroke:#EC7211;stroke-width:3.125;"/><polygon fill="#EC7211" points="618.8333,931.2305,620.3915,921.0903,617.4654,926.205,612.3507,923.2789,618.8333,931.2305" style="stroke:#EC7211;stroke-width:3.125;"/></g><!--MD5=[d0a35ab1c988c73a495bf9d02db125e7]
link PRISM auth to pss--><g id="link_PRISM auth_pss"><path d="M799.6771,796.1471 C794.1563,829.7826 784.7604,887.1159 778.4271,925.6784 " fill="none" id="PRISM auth-to-pss" style="stroke:#EC7211;stroke-width:3.125;"/><polygon fill="#EC7211" points="777.5208,931.2305,783.156,922.6574,778.3674,926.0914,774.9335,921.3029,777.5208,931.2305" style="stroke:#EC7211;stroke-width:3.125;"/></g><!--MD5=[59851d720a1ffcd9955163bf9e26551c]
link Tide Enclave to http2--><g id="link_Tide Enclave_http2"><path d="M755.6979,522.9909 C798.5625,545.5638 854.0417,581.8138 885.4167,630.2305 C910.6979,669.2305 913.2708,726.7096 913,752.8451 " fill="none" id="Tide Enclave-to-http2" style="stroke:#EC7211;stroke-width:3.125;"/><polygon fill="#EC7211" points="912.8958,758.2201,917.2491,748.9302,913,753.0128,908.9175,748.7636,912.8958,758.2201" style="stroke:#EC7211;stroke-width:3.125;"/><text fill="#4E5D6C" font-family="&quot;Verdana&quot;" font-size="12.5" lengthAdjust="spacing" textLength="63.5417" x="884.375" y="599.1249">Download</text><text fill="#4E5D6C" font-family="&quot;Verdana&quot;" font-size="12.5" lengthAdjust="spacing" textLength="50" x="891.1458" y="613.6757">enclave</text></g><!--MD5=[058d0086c11eccfb29a671ca6a888066]
link Tide Enclave to 0--><g id="link_Tide Enclave_0"><path d="M695.8333,523.3138 C695.8333,580.2201 695.8333,709.3242 695.8333,752.3971 " fill="none" id="Tide Enclave-to-0" style="stroke:#EC7211;stroke-width:3.125;"/><polygon fill="#EC7211" points="695.8333,758.1055,700,748.7305,695.8333,752.8971,691.6667,748.7305,695.8333,758.1055" style="stroke:#EC7211;stroke-width:3.125;"/><text fill="#4E5D6C" font-family="&quot;Verdana&quot;" font-size="12.5" lengthAdjust="spacing" textLength="62.5" x="718.75" y="599.1249">Password</text><text fill="#4E5D6C" font-family="&quot;Verdana&quot;" font-size="12.5" lengthAdjust="spacing" textLength="95.8333" x="702.0833" y="613.6757">authentication</text></g><!--MD5=[f09c85b461223cf7fbab6917eb34b258]
link Tide Enclave to 1--><g id="link_Tide Enclave_1"><path d="M629.1146,520.9701 C580.8646,542.6055 518.1042,578.5742 482.2917,630.2305 C455.7708,668.4909 453.2292,726.3346 453.6042,752.7096 " fill="none" id="Tide Enclave-to-1" style="stroke:#EC7211;stroke-width:3.125;"/><polygon fill="#EC7211" points="453.7292,758.1263,457.6805,748.6585,453.6102,752.9193,449.3494,748.849,453.7292,758.1263" style="stroke:#EC7211;stroke-width:3.125;"/><text fill="#4E5D6C" font-family="&quot;Verdana&quot;" font-size="12.5" lengthAdjust="spacing" textLength="28.125" x="529.1667" y="606.4166">Sign</text></g><rect fill="#FFFFFF" height="92.5944" id="_legend" rx="4.1667" ry="4.1667" style="stroke:#CCCCCC;stroke-width:1.0416666666666667;" width="214.5833" x="472.3026" y="1119.7111"/><text fill="#ABB6C2" font-family="&quot;Verdana&quot;" font-size="14.5833" lengthAdjust="spacing" textLength="193.75" x="482.7193" y="1143.6644">Grey : Untouched modules</text><line style="stroke:#CCCCCC;stroke-width:1.0416666666666667;" x1="472.3026" x2="686.886" y1="1152.312" y2="1152.312"/><line style="stroke:#CCCCCC;stroke-width:1.0416666666666667;" x1="472.3026" x2="686.886" y1="1154.3954" y2="1154.3954"/><text fill="#ABB6C2" font-family="&quot;Verdana&quot;" font-size="14.5833" lengthAdjust="spacing" textLength="163.5417" x="482.7193" y="1171.0569">Blue : Tidified modules</text><line style="stroke:#CCCCCC;stroke-width:1.0416666666666667;" x1="472.3026" x2="686.886" y1="1179.7046" y2="1179.7046"/><line style="stroke:#CCCCCC;stroke-width:1.0416666666666667;" x1="472.3026" x2="686.886" y1="1181.7879" y2="1181.7879"/><text fill="#ABB6C2" font-family="&quot;Verdana&quot;" font-size="14.5833" lengthAdjust="spacing" textLength="164.5833" x="482.7193" y="1198.4495">Orange : Tide modules</text><!--MD5=[2ff95242be552389088a6fff4399cf4c]
@startuml KeyleSSH Architecture
title KeyleSSH Architecture
!include https://raw.githubusercontent.com/bschwarz/puml-themes/master/themes/aws-orange-light/puml-theme-aws-orange-light.puml

actor "User" as user #grey

node "Host" {
    interface SSH2 #grey
    component [SSH Server] #grey
    [SSH Server] - SSH2 #grey 
    folder "authorized_keys" #grey {
        [public key] as cvkpub #grey
    }
}
[SSH Server] - -> [cvkpub] #black

node "SSH Proxy" {
    interface Websocket #blue
    component [WebSSH2] #Blue
    Websocket - [WebSSH2] #blue
    folder "config.json" #grey {
        component "Host IP" as config #grey
    }
    [config] <- [WebSSH2] #black
    interface "HTML" as http1 #blue
    component [Landing page] #blue
    [Landing page] - http1 #blue
}
[WebSSH2] - -> [SSH2] #grey : ssh

frame "Web browser" as browser {
    node "Web client" as webclient {
        component [SSH Client] #blue
        [Tide Enclave]
    }
    [http1] <- - [SSH Client] #grey : Download client 
    [SSH Client] -> [Websocket] #blue : SSH session
    [SSH Client] <-> [Tide Enclave] : Tide\nHeimdall SDK
}

[Tide Enclave] <-right-> [user] #grey : Press button\nLog in\nSSH session

cloud "Tide Network" #orange {
    node "ORK node" {
        interface "HTML" as http2
        interface "HTTP API" as 0
        interface "HTTP API" as 1
        http2 -[Enclave host]
        0 -[PRISM auth]
        1 - [Verify and Sign]
        database "key store" {
            [Private key\nshard] as cvk
            [PRISM\nshard] as pss
        }   
        [Verify and Sign] -down-> [cvk]
        [PRISM auth] -down-> [pss]
    }
}

[Tide Enclave] -down-> [http2] : Download\nenclave
[Tide Enclave] -> [0] : Password\nauthentication
[Tide Enclave] -> [1] : Sign

legend
    Grey : Untouched modules
    ====
    Blue : Tidified modules
    ====
    Orange : Tide modules
endlegend
@enduml

@startuml KeyleSSH Architecture
title KeyleSSH Architecture



skinparam backgroundColor transparent










skinparam defaultFontName       "Verdana"
skinparam defaultFontSize       12
skinparam dpi                   100
skinparam shadowing             false
skinparam roundcorner           8
skinparam ParticipantPadding    40
skinparam BoxPadding            40
skinparam Padding               5
skinparam ArrowColor            #4E5D6C
skinparam stereotype {
    CBackgroundColor #ffffff
    CBorderColor #cccccc
    ABackgroundColor #4a9a35
    ABorderColor #176702
    IBackgroundColor #da5b41
    IBorderColor #a7280e
    EBackgroundColor #f08e41
    EBorderColor #bd5b0e
    NBackgroundColor #338fc9
    NBorderColor #005c96
}
skinparam title {
	FontColor	                 #4E5D6C
	BorderColor	                 #FFFFFF
	FontSize	    	         20
	BorderRoundCorner            8
	BorderThickness 	         1
	BackgroundColor              #FFFFFF-#cccccc
}

skinparam legend {
	BackgroundColor #FFFFFF
	BorderColor #cccccc
	FontColor #abb6c2
}

skinparam swimlane {
	BorderColor #0073bb
	BorderThickness 2
	TitleBackgroundColor  #FFFFFF-#cccccc
	TitleFontColor #EC7211
}


skinparam activity {
		FontColor #FFF
	BorderColor #EC7211
	BackgroundColor #f08e41-#EC7211
	BarColor #1D8102
	StartColor #0073bb
	EndColor #0073bb
	DiamondBackgroundColor #ffffff
  	DiamondBorderColor #cccccc
  	DiamondFontColor #4E5D6C
}

skinparam participant {
		FontColor #FFF
	BorderColor #EC7211
	BackgroundColor #f08e41-#EC7211
	ParticipantBorderThickness 2
}

skinparam actor {
		FontColor #FFF
	BorderColor #EC7211
	BackgroundColor #f08e41-#EC7211
	FontColor #4E5D6C
}

skinparam arrow {
	Thickness 3
	Color #EC7211
	FontColor #4E5D6C
}

skinparam sequence {
	ArrowThickness 3
	BorderColor #EC7211
	TitleFontColor #EC7211
	BackgroundColor transparent
	StartColor #EC7211
	EndColor #EC7211
	BoxBackgroundColor transparent
	BoxBorderColor #4E5D6C
	BoxFontColor #4E5D6C
	DelayFontColor #4E5D6C
	LifeLineBorderColor #abb6c2
	LifeLineBorderThickness 2
	LifeLineBackgroundColor #bcc5ce
	GroupBorderColor #4E5D6C
	GroupFontColor #4E5D6C
	GroupHeaderFontColor #0073bb
	GroupBackgroundColor #FFFFFF
	GroupBodyBackgroundColor transparent
	GroupHeaderBackgroundColor transparent
	DividerBackgroundColor #4E5D6C
    DividerBorderColor #4E5D6C
    DividerBorderThickness 2
    DividerFontColor #abb6c2
	ReferenceBackgroundColor transparent
	ReferenceBorderColor #4E5D6C
	ReferenceFontColor #4E5D6C
	ReferenceHeaderFontColor #0073bb
	ReferenceHeaderBackgroundColor #FFFFFF
	StereotypeFontColor #FFF
}

skinparam partition {
	BorderColor #EC7211
	FontColor #EC7211
	BackgroundColor transparent
}

skinparam collections {
		FontColor #FFF
	BorderColor #EC7211
	BackgroundColor #f08e41-#EC7211
}

skinparam control {
		FontColor #FFF
	BorderColor #EC7211
	BackgroundColor #f08e41-#EC7211
	FontColor #4E5D6C
}

skinparam entity {
		FontColor #FFF
	BorderColor #EC7211
	BackgroundColor #f08e41-#EC7211
	FontColor #4E5D6C
}

skinparam boundary {
		FontColor #FFF
	BorderColor #EC7211
	BackgroundColor #f08e41-#EC7211
	FontColor #4E5D6C
}

skinparam agent {
	BackgroundColor #EC7211
	BorderColor #f08e41
	FontColor #4E5D6C
}

skinparam note {
	BorderThickness 1
	BackgroundColor #0073bb
	BorderColor #005c96
	FontColor #FFF
}

skinparam artifact {
	BackgroundColor #4E5D6C
	BorderColor #717d89
	FontColor #abb6c2
}

skinparam component {
		FontColor #FFF
	BorderColor #EC7211
	BackgroundColor #f08e41-#EC7211
}

skinparam interface {
	BackgroundColor  #a7280e
	BorderColor  #d13212
	FontColor #4E5D6C
}

skinparam storage {
	BackgroundColor #EC7211
  	BorderColor #bd5b0e
	FontColor #FFF
}

skinparam node {
	BackgroundColor  transparent
	BorderColor #abb6c2
	FontColor #abb6c2
}

skinparam cloud {
	BackgroundColor transparent
	BorderColor #4E5D6C
	FontColor #abb6c2
}

skinparam database {
		FontColor #FFF
	BorderColor #EC7211
	BackgroundColor #f08e41-#EC7211
	FontColor #4E5D6C
}

skinparam class {
		FontColor #FFF
	BorderColor #EC7211
	BackgroundColor #f08e41-#EC7211
	HeaderBackgroundColor #f08e41
	StereotypeFontColor #4E5D6C
	BorderThickness 1
	AttributeFontColor #FFF
	AttributeFontSize 11
}

skinparam object {
		FontColor #FFF
	BorderColor #EC7211
	BackgroundColor #f08e41-#EC7211
	StereotypeFontColor #4E5D6C
	BorderThickness 1
	AttributeFontColor #FFF
	AttributeFontSize 11
}

skinparam usecase {
		FontColor #FFF
	BorderColor #EC7211
	BackgroundColor #f08e41-#EC7211
	BorderThickness 2
	StereotypeFontColor #EC7211
}

skinparam rectangle {
	BackgroundColor transparent
	FontColor #4E5D6C
	BorderColor #4E5D6C
	BorderThickness 2
	StereotypeFontColor #abb6c2
}

skinparam package {
	BackgroundColor #FFFFFF
  	BorderColor #4E5D6C
	FontColor #4E5D6C
	BorderThickness 2
}

skinparam folder {
	BackgroundColor #ffffff
  	BorderColor #EC7211
	FontColor #EC7211
	BorderThickness 2
}

skinparam frame {
	BackgroundColor #ffffff
  	BorderColor #0073bb
	FontColor #0073bb
	BorderThickness 2
}

skinparam state {
		FontColor #FFF
	BorderColor #EC7211
	BackgroundColor #f08e41-#EC7211
	StartColor #0073bb
	EndColor #0073bb
	AttributeFontColor #4E5D6C
	AttributeFontSize 11
}

skinparam queue {
		FontColor #FFF
	BorderColor #EC7211
	BackgroundColor #f08e41-#EC7211
}

skinparam card {
	BackgroundColor #0073bb
	BorderColor #005c96
	FontColor #FFF
}

skinparam file {
	BackgroundColor #cccccc
	BorderColor #abb6c2
	FontColor #4E5D6C
}


skinparam stack {
		FontColor #FFF
	BorderColor #EC7211
	BackgroundColor #f08e41-#EC7211
}


actor "User" as user #grey

node "Host" {
    interface SSH2 #grey
    component [SSH Server] #grey
    [SSH Server] - SSH2 #grey 
    folder "authorized_keys" #grey {
        [public key] as cvkpub #grey
    }
}
[SSH Server] - -> [cvkpub] #black

node "SSH Proxy" {
    interface Websocket #blue
    component [WebSSH2] #Blue
    Websocket - [WebSSH2] #blue
    folder "config.json" #grey {
        component "Host IP" as config #grey
    }
    [config] <- [WebSSH2] #black
    interface "HTML" as http1 #blue
    component [Landing page] #blue
    [Landing page] - http1 #blue
}
[WebSSH2] - -> [SSH2] #grey : ssh

frame "Web browser" as browser {
    node "Web client" as webclient {
        component [SSH Client] #blue
        [Tide Enclave]
    }
    [http1] <- - [SSH Client] #grey : Download client 
    [SSH Client] -> [Websocket] #blue : SSH session
    [SSH Client] <-> [Tide Enclave] : Tide\nHeimdall SDK
}

[Tide Enclave] <-right-> [user] #grey : Press button\nLog in\nSSH session

cloud "Tide Network" #orange {
    node "ORK node" {
        interface "HTML" as http2
        interface "HTTP API" as 0
        interface "HTTP API" as 1
        http2 -[Enclave host]
        0 -[PRISM auth]
        1 - [Verify and Sign]
        database "key store" {
            [Private key\nshard] as cvk
            [PRISM\nshard] as pss
        }   
        [Verify and Sign] -down-> [cvk]
        [PRISM auth] -down-> [pss]
    }
}

[Tide Enclave] -down-> [http2] : Download\nenclave
[Tide Enclave] -> [0] : Password\nauthentication
[Tide Enclave] -> [1] : Sign

legend
    Grey : Untouched modules
    ====
    Blue : Tidified modules
    ====
    Orange : Tide modules
endlegend
@enduml

PlantUML version 1.2022.13(Sat Nov 19 13:22:17 UTC 2022)
(GPL source distribution)
Java Runtime: OpenJDK Runtime Environment
JVM: OpenJDK 64-Bit Server VM
Default Encoding: UTF-8
Language: en
Country: null
--></g></svg>